<?xml version="1.0" encoding="UTF-8"?>
<svg fill="#FFFFFF" xmlns="http://www.w3.org/2000/svg" id="Layer_1" data-name="Layer 1" viewBox="0 0 24 24" width="512" height="512"><path d="m0,.5C0,.224.223,0,.5,0h10c.276,0,.5.224.5.5s-.224.5-.5.5H.5C.223,1,0,.776,0,.5Zm5,10c0,.276.224.5.5.5s.5-.224.5-.5v-6.5h4.5c.276,0,.5-.224.5-.5s-.224-.5-.5-.5H.5C.223,3,0,3.224,0,3.5s.224.5.5.5h4.5v6.5ZM24,1.5v6.5c0,1.103-.897,2-2,2s-2-.897-2-2,.897-2,2-2c.366,0,.705.106,1,.278V1.5c0-.147-.062-.281-.173-.378-.11-.097-.253-.14-.398-.117l-5,.715c-.244.035-.429.247-.429.494v6.786c0,1.103-.897,2-2,2s-2-.897-2-2,.897-2,2-2c.366,0,.705.106,1,.278V2.214c0-.741.554-1.38,1.288-1.484L22.288.015c.427-.06.866.067,1.194.353.329.285.518.698.518,1.133Zm-8,7.5c0-.552-.448-1-1-1s-1,.448-1,1,.448,1,1,1,1-.448,1-1Zm7-1c0-.552-.448-1-1-1s-1,.448-1,1,.448,1,1,1,1-.448,1-1Zm1,14c0,1.103-.897,2-2,2s-2-.897-2-2,.897-2,2-2,2,.897,2,2Zm-1,0c0-.552-.448-1-1-1s-1,.448-1,1,.448,1,1,1,1-.448,1-1Zm-9-7c0-1.103.897-2,2-2s2,.897,2,2-.897,2-2,2-2-.897-2-2Zm1,0c0,.552.448,1,1,1s1-.448,1-1-.448-1-1-1-1,.448-1,1Zm8.835-1.872c-.205-.184-.52-.166-.707.037l-9,10c-.185.206-.168.521.037.707.096.086.216.128.335.128.137,0,.272-.056.372-.165l9-10c.185-.206.168-.521-.037-.707Zm-11.981,10.019c.195.195.195.512,0,.707-.098.098-.226.146-.354.146s-.256-.049-.354-.146l-2.145-2.145c-1.204,1.241-2.666,2.291-4.163,2.291-2.403,0-3.839-1.141-3.839-3.052,0-1.337,2.127-3.147,3.204-3.978-.512-.478-1.204-1.254-1.204-1.971,0-1.103.897-2,2-2s2,.897,2,2c0,.745-.749,1.557-1.265,2.028l3.228,3.228c.945-1.114,1.71-2.301,2.1-3,.134-.242.439-.328.68-.193.241.134.328.438.193.68-.07.128-.951,1.692-2.261,3.226l2.178,2.178Zm-6.854-6.8c.525-.473,1-1.056,1-1.347,0-.552-.448-1-1-1s-1,.448-1,1c0,.291.475.874,1,1.347Zm3.292,4.653l-3.341-3.342c-1.324,1.006-2.951,2.544-2.951,3.29,0,1.695,1.544,2.052,2.839,2.052,1.149,0,2.378-.888,3.453-2Z"/></svg>
